<svg width="470" height="972" viewBox="0 0 470 972" fill="none" xmlns="http://www.w3.org/2000/svg">
<g clip-path="url(#clip0_486_5719)">
<rect x="20" y="20" width="430" height="932" rx="50" fill="#510006"/>
<path d="M77.5656 54.665L77.4636 54.597C76.9196 55.073 76.3076 55.311 75.6276 55.311C74.9589 55.311 74.4036 55.0787 73.9616 54.614C73.5196 54.138 73.2986 53.5147 73.2986 52.744C73.2986 51.6673 73.6386 50.8003 74.3186 50.143C75.0099 49.4857 75.8146 49.157 76.7326 49.157C77.6506 49.157 78.3419 49.395 78.8066 49.871C79.2712 50.347 79.5036 51.0043 79.5036 51.843C79.5036 52.6703 79.2599 53.5713 78.7726 54.546C78.2966 55.5093 77.5656 56.433 76.5796 57.317C75.5936 58.1897 74.4659 58.8187 73.1966 59.204L73.0606 58.813C73.7859 58.575 74.6019 58.0933 75.5086 57.368C76.4266 56.6427 77.1122 55.7417 77.5656 54.665ZM75.9846 54.818C76.7212 54.818 77.2822 54.4837 77.6676 53.815C78.0529 53.135 78.2456 52.4323 78.2456 51.707C78.2456 50.9817 78.1209 50.4377 77.8716 50.075C77.6336 49.7123 77.2652 49.531 76.7666 49.531C76.2792 49.531 75.7862 49.837 75.2876 50.449C74.7889 51.061 74.5396 51.843 74.5396 52.795C74.5396 53.441 74.6756 53.9397 74.9476 54.291C75.2196 54.6423 75.5652 54.818 75.9846 54.818ZM80.1103 58.949C79.9403 58.7677 79.8553 58.5523 79.8553 58.303C79.8553 58.0537 79.9403 57.844 80.1103 57.674C80.2916 57.4927 80.507 57.402 80.7563 57.402C81.0056 57.402 81.2153 57.4927 81.3853 57.674C81.5666 57.844 81.6573 58.0537 81.6573 58.303C81.6573 58.5523 81.5666 58.7677 81.3853 58.949C81.2153 59.119 81.0056 59.204 80.7563 59.204C80.507 59.204 80.2916 59.119 80.1103 58.949ZM81.3343 53.305C81.1643 53.1237 81.0793 52.9083 81.0793 52.659C81.0793 52.4097 81.1643 52.2 81.3343 52.03C81.5156 51.8487 81.731 51.758 81.9803 51.758C82.2296 51.758 82.4393 51.8487 82.6093 52.03C82.7906 52.2 82.8813 52.4097 82.8813 52.659C82.8813 52.9083 82.7906 53.1237 82.6093 53.305C82.4393 53.475 82.2296 53.56 81.9803 53.56C81.731 53.56 81.5156 53.475 81.3343 53.305ZM88.2254 56.722H87.4094L87.0354 58.507C87.0354 58.6203 87.0978 58.677 87.2224 58.677H88.3444L88.2934 59H84.4004L84.4514 58.677H85.5564C85.7038 58.677 85.8058 58.5977 85.8624 58.439L86.2194 56.722H81.7824L88.5654 49.157H89.0924L87.5284 56.229H88.3444C88.5144 56.229 88.6108 56.1497 88.6334 55.991L88.8544 55.158H89.1434L88.5484 57.793H88.2594C88.3728 57.2377 88.4294 56.943 88.4294 56.909C88.4294 56.7843 88.3614 56.722 88.2254 56.722ZM82.7514 56.229H86.3384L87.4944 50.993L82.7514 56.229ZM92.3575 50.653L92.3745 50.5C92.3745 50.3187 92.2385 50.228 91.9665 50.228L90.1475 50.33L90.1985 49.922L91.7285 49.701C92.6919 49.5537 93.4625 49.3723 94.0405 49.157C93.8365 49.5877 93.6439 50.2337 93.4625 51.095L91.7965 59H90.5895L92.3575 50.653ZM91.9155 58.439L91.8985 58.507C91.8985 58.6203 91.9665 58.677 92.1025 58.677H93.6325L93.5645 59H88.4815L88.5495 58.677H90.4365C90.5839 58.677 90.6745 58.5977 90.7085 58.439H91.9155Z" fill="black"/>
<path d="M106.751 54.5545C106.52 54.5504 106.327 54.4996 106.174 54.4021C106.024 54.3005 105.912 54.1724 105.839 54.0179C105.767 53.8594 105.738 53.6928 105.754 53.518C105.771 53.3391 105.831 53.1745 105.937 53.0241C106.042 52.8696 106.198 52.7456 106.404 52.6521L116.124 48.1584C116.404 48.0324 116.661 47.9815 116.896 48.0059C117.131 48.0263 117.323 48.1096 117.473 48.2559C117.623 48.3982 117.712 48.5852 117.74 48.8169C117.773 49.0445 117.724 49.3006 117.594 49.5852L113.129 59.3044C113.032 59.5239 112.905 59.6885 112.747 59.7983C112.589 59.9121 112.421 59.9771 112.242 59.9934C112.064 60.0137 111.896 59.9873 111.738 59.9141C111.58 59.8409 111.453 59.7271 111.356 59.5727C111.258 59.4223 111.21 59.2353 111.21 59.0117L111.198 54.6643C111.198 54.5992 111.165 54.5667 111.1 54.5667L106.751 54.5545Z" fill="black"/>
<rect x="164.5" y="33" width="141" height="42" rx="21" fill="black"/>
<circle cx="283.5" cy="54" r="6" fill="#0E101F"/>
<circle cx="283.501" cy="53.9999" r="4.90909" fill="#01031A"/>
<g filter="url(#filter0_f_486_5719)">
<ellipse cx="283.501" cy="51.2725" rx="2.72727" ry="1.09091" fill="white" fill-opacity="0.1"/>
</g>
<g filter="url(#filter1_f_486_5719)">
<ellipse cx="283.501" cy="56.1818" rx="2.72727" ry="1.63636" fill="white" fill-opacity="0.1"/>
</g>
<path d="M337.417 56H338.583C339.228 56 339.75 56.5037 339.75 57.125V59.375C339.75 59.9963 339.228 60.5 338.583 60.5H337.417C336.772 60.5 336.25 59.9963 336.25 59.375V57.125C336.25 56.5037 336.772 56 337.417 56Z" fill="black"/>
<path d="M342.417 54H343.583C344.228 54 344.75 54.5037 344.75 55.125V59.375C344.75 59.9963 344.228 60.5 343.583 60.5H342.417C341.772 60.5 341.25 59.9963 341.25 59.375V55.125C341.25 54.5037 341.772 54 342.417 54Z" fill="black"/>
<path opacity="0.2" d="M347.417 51H348.583C349.228 51 349.75 51.5037 349.75 52.125V59.375C349.75 59.9963 349.228 60.5 348.583 60.5H347.417C346.772 60.5 346.25 59.9963 346.25 59.375V52.125C346.25 51.5037 346.772 51 347.417 51Z" fill="black"/>
<path opacity="0.2" d="M352.417 48H353.583C354.228 48 354.75 48.5037 354.75 49.125V59.375C354.75 59.9963 354.228 60.5 353.583 60.5H352.417C351.772 60.5 351.25 59.9963 351.25 59.375V49.125C351.25 48.5037 351.772 48 352.417 48Z" fill="black"/>
<path d="M367.607 56.6929C365.274 56.6929 363.619 55.0449 363.619 52.6982C363.619 50.3516 365.274 48.7036 367.607 48.7036H373.566C375.893 48.7036 377.554 50.3516 377.554 52.6982C377.554 55.0449 375.893 56.6929 373.566 56.6929H371.628C371.299 56.3501 371.272 55.6052 371.523 55.3284H373.494C375.03 55.3284 376.117 54.2473 376.117 52.6982C376.117 51.1558 375.03 50.0681 373.494 50.0681H367.68C366.144 50.0681 365.056 51.1558 365.056 52.6982C365.056 54.2473 366.144 55.3284 367.68 55.3284H368.029C367.95 55.7371 367.983 56.2314 368.042 56.6929H367.607ZM372.933 59.8438C370.6 59.8438 368.945 58.1958 368.945 55.8491C368.945 53.5024 370.6 51.8545 372.933 51.8545H374.865C375.175 52.1973 375.201 52.9158 374.977 53.219H373.006C371.47 53.219 370.382 54.3 370.382 55.8491C370.382 57.3916 371.47 58.4792 373.006 58.4792H378.82C380.356 58.4792 381.443 57.3916 381.443 55.8491C381.443 54.3 380.356 53.219 378.82 53.219H378.47C378.55 52.8037 378.523 52.3159 378.457 51.8545H378.892C381.226 51.8545 382.88 53.5024 382.88 55.8491C382.88 58.1958 381.226 59.8438 378.892 59.8438H372.933Z" fill="black"/>
<g opacity="0.3">
<path d="M392.916 48.7777C392.25 49.7866 392.25 51.1911 392.25 54C392.25 56.8089 392.25 58.2134 392.916 59.2223C393.204 59.659 393.575 60.034 394.006 60.3259C395.003 61 396.39 61 399.165 61H410.033C412.808 61 414.195 61 415.192 60.3259C415.623 60.034 415.994 59.659 416.282 59.2223C416.948 58.2134 416.948 56.8089 416.948 54C416.948 51.1911 416.948 49.7866 416.282 48.7777C415.994 48.341 415.623 47.966 415.192 47.6741C414.195 47 412.808 47 410.033 47H399.165C396.39 47 395.003 47 394.006 47.6741C393.575 47.966 393.204 48.341 392.916 48.7777Z" fill="black"/>
<path d="M419.25 53.75C419.25 54.6231 418.732 55.4112 417.936 55.75V51.75C418.732 52.0888 419.25 52.8769 419.25 53.75Z" fill="black"/>
</g>
<path d="M392.25 54C392.25 51.1911 392.25 49.7866 392.924 48.7777C393.216 48.341 393.591 47.966 394.028 47.6741C395.037 47 396.441 47 399.25 47H402.129V61H399.25C396.441 61 395.037 61 394.028 60.3259C393.591 60.034 393.216 59.659 392.924 59.2223C392.25 58.2134 392.25 56.8089 392.25 54Z" fill="#F7CE45"/>
<path d="M401.815 54.898V54.689C402.468 54.645 403.022 54.4213 403.476 54.018C403.931 53.6147 404.158 53.182 404.158 52.72C404.158 52.4707 404.089 52.269 403.949 52.115C403.817 51.9537 403.608 51.873 403.322 51.873C403.044 51.873 402.813 51.9793 402.629 52.192C402.446 52.4047 402.354 52.632 402.354 52.874C402.354 53.1087 402.373 53.2663 402.409 53.347C402.277 53.457 402.101 53.512 401.881 53.512C401.698 53.512 401.606 53.3837 401.606 53.127C401.606 52.6503 401.786 52.2837 402.145 52.027C402.512 51.763 402.915 51.631 403.355 51.631C403.795 51.631 404.166 51.73 404.466 51.928C404.774 52.126 404.928 52.4047 404.928 52.764C404.928 53.1233 404.771 53.4863 404.455 53.853C404.147 54.2123 403.718 54.469 403.168 54.623C403.66 54.6817 404.037 54.832 404.301 55.074C404.573 55.316 404.708 55.6057 404.708 55.943C404.708 56.5003 404.463 57.0063 403.971 57.461C403.487 57.9083 402.86 58.132 402.09 58.132C401.628 58.132 401.276 58.0367 401.034 57.846C400.792 57.648 400.671 57.406 400.671 57.12C400.671 56.834 400.715 56.603 400.803 56.427C400.891 56.2437 401.012 56.152 401.166 56.152C401.32 56.152 401.478 56.2107 401.639 56.328C401.456 56.6287 401.364 56.9037 401.364 57.153C401.364 57.6517 401.617 57.901 402.123 57.901C402.637 57.901 403.058 57.7103 403.388 57.329C403.726 56.9403 403.894 56.5297 403.894 56.097C403.894 55.6643 403.751 55.349 403.465 55.151C403.187 54.953 402.813 54.854 402.343 54.854C402.145 54.854 401.969 54.8687 401.815 54.898ZM408.224 51.873C407.828 51.873 407.527 51.9977 407.322 52.247C407.116 52.4963 407.014 52.8007 407.014 53.16C407.014 53.2627 407.025 53.358 407.047 53.446C406.907 53.556 406.735 53.611 406.53 53.611C406.346 53.611 406.255 53.4937 406.255 53.259C406.255 52.819 406.434 52.4377 406.794 52.115C407.153 51.7923 407.615 51.631 408.18 51.631C408.744 51.631 409.159 51.7447 409.423 51.972C409.694 52.192 409.83 52.4707 409.83 52.808C409.83 53.1453 409.764 53.4203 409.632 53.633C409.507 53.8383 409.408 53.996 409.335 54.106C409.261 54.216 409.148 54.3517 408.994 54.513C408.84 54.667 408.722 54.7843 408.642 54.865C408.561 54.9383 408.429 55.0557 408.246 55.217C408.062 55.3783 407.945 55.4847 407.894 55.536L405.958 57.307H408.477C408.638 57.307 408.752 57.2263 408.818 57.065L409.159 56.108H409.39L409.28 56.636C409.148 57.274 409.082 57.7617 409.082 58.099C408.854 58.033 408.462 58 407.905 58H404.814L407.773 55.25C408.22 54.8393 408.535 54.403 408.719 53.941C408.909 53.4717 409.005 53.0757 409.005 52.753C409.005 52.1663 408.744 51.873 408.224 51.873Z" fill="black"/>
<g clip-path="url(#clip1_486_5719)">
<path d="M246.542 336.788L226.906 356.013" stroke="#FFF5EA" stroke-width="2" stroke-miterlimit="10"/>
</g>
<path d="M232.97 325.29C232.374 325.45 231.251 325.886 230.49 326.267C229.337 326.848 228.886 327.168 227.793 328.275C227.062 328.991 226.26 329.952 226.014 330.388C225.754 330.824 225.358 331.61 225.152 332.136C224.932 332.662 224.671 333.503 224.571 334.029C224.455 334.555 224.365 335.471 224.365 336.067C224.365 336.663 224.45 337.449 224.571 337.815C224.701 338.18 225.112 338.821 225.488 339.257C225.869 339.678 226.45 340.173 226.771 340.334C227.152 340.539 227.748 340.654 228.52 340.699C229.583 340.774 229.773 340.744 230.635 340.334C231.276 340.043 231.758 339.708 232.108 339.257C232.414 338.906 232.765 338.356 232.895 338.035C233.056 337.655 233.156 337.059 233.156 336.358C233.156 335.541 233.081 335.091 232.85 334.565C232.675 334.184 232.224 333.573 231.828 333.198C231.407 332.762 230.881 332.411 230.414 332.236C229.978 332.091 229.262 331.991 228.665 331.991C227.909 331.991 227.452 332.076 226.916 332.341C226.505 332.532 225.999 332.867 225.779 333.097C225.558 333.333 225.373 333.433 225.383 333.333C225.383 333.248 225.543 332.752 225.718 332.241C225.909 331.745 226.29 330.974 226.58 330.538C226.856 330.103 227.307 329.492 227.588 329.171C227.863 328.866 228.45 328.385 228.886 328.095C229.322 327.819 230.054 327.454 230.49 327.308C231.101 327.088 231.597 327.033 232.605 327.073C233.742 327.118 234.048 327.188 234.935 327.614C235.622 327.949 236.263 328.43 236.92 329.071C237.591 329.757 238.042 330.383 238.478 331.27C238.829 331.956 239.205 332.872 239.34 333.308C239.531 333.949 239.601 335.055 239.661 338.831L239.751 343.554C240.904 342.562 242.553 341.105 244.172 339.693L247.119 337.099C247.119 335.466 247.034 334.565 246.913 334.039C246.813 333.513 246.547 332.672 246.332 332.146C246.126 331.62 245.736 330.834 245.47 330.398C245.224 329.963 244.417 329.001 243.691 328.285C242.598 327.178 242.147 326.858 240.994 326.277C240.238 325.896 239.085 325.46 238.443 325.3C237.611 325.095 236.81 325.01 235.672 325.01C234.594 325.025 233.702 325.11 232.975 325.3L232.97 325.29ZM246.472 346.679C246.427 347.059 246.197 347.685 245.961 348.091C245.741 348.486 245.259 349.082 244.899 349.403C244.518 349.738 243.906 350.104 243.455 350.249C242.753 350.47 242.042 350.495 237.246 350.495H231.808C230.394 351.762 229.753 352.343 229.477 352.593C229.202 352.843 228.109 353.79 227.072 354.706C226.019 355.623 225.017 356.529 224.811 356.714L224.445 357.05H247.119C247.119 346.183 247.104 345.978 246.843 345.978C246.623 345.978 246.552 346.123 246.477 346.664V346.679H246.472Z" fill="#FFF5EA"/>
<path d="M235.836 502.167C240.512 502.167 244.301 498.381 244.301 493.709C244.301 489.036 240.512 485.25 235.836 485.25C231.16 485.25 227.371 489.036 227.371 493.709C227.371 498.381 231.16 502.167 235.836 502.167Z" fill="#FFF5EA"/>
<path d="M102.637 504.112C103.478 502.387 104.14 500.542 104.794 498.705C107.273 491.744 109.378 484.604 111.686 477.567C113.297 472.65 114.91 467.731 116.522 462.815C118.341 457.265 120.159 451.715 121.979 446.166C123.929 440.216 125.88 434.263 127.831 428.312C129.839 422.19 131.846 416.067 133.852 409.944C135.858 403.822 137.827 397.817 139.815 391.753C141.708 385.978 143.6 380.204 145.493 374.428C147.216 369.172 148.939 363.918 150.66 358.662C152.137 354.156 153.613 349.651 155.091 345.146C156.246 341.62 157.401 338.096 158.556 334.57C159.315 332.255 160.074 329.941 160.832 327.626C161.118 326.752 161.405 325.879 161.691 325.005V325H163.436L222.407 420.79L250.987 467.29C257.606 478.022 266.078 493.11 274.986 504.829C282.343 514.509 293.01 520.342 303.192 524.655C305.52 525.64 307.875 526.554 310.259 527.354C312.371 528.063 315.054 529.317 317.271 529.317H284.532L194.164 383.107C192.309 388.857 190.453 394.606 188.596 400.357C184.38 413.416 180.164 426.477 175.948 439.536C171.39 453.656 166.832 467.777 162.274 481.897C159.391 490.828 156.455 499.739 153.625 508.692C150.251 519.37 143.613 526.491 133.718 529.315H66.4951C74.9496 529.184 82.9076 524.46 89.5306 518.894C92.3295 516.541 94.9728 513.953 97.451 511.182C98.5231 509.984 99.5643 508.751 100.567 507.479C101.382 506.445 102.053 505.307 102.637 504.11V504.112Z" fill="#FFF5EA"/>
<path d="M369.146 504.112C368.305 502.387 367.643 500.542 366.989 498.705C364.51 491.744 362.405 484.604 360.097 477.567C358.486 472.65 356.873 467.731 355.262 462.815C353.442 457.265 351.624 451.715 349.805 446.166C347.854 440.216 345.903 434.263 343.952 428.312C341.945 422.19 339.937 416.067 337.931 409.944C335.925 403.822 333.956 397.817 331.969 391.753C330.075 385.978 328.183 380.204 326.29 374.428C324.567 369.172 322.845 363.918 321.123 358.662C319.646 354.156 318.17 349.651 316.693 345.146C315.537 341.62 314.382 338.096 313.227 334.57C312.469 332.255 311.709 329.941 310.951 327.626C310.665 326.752 310.378 325.879 310.092 325.005V325H308.347L249.376 420.79L220.796 467.29C214.177 478.022 205.706 493.11 196.798 504.829C189.441 514.509 178.774 520.342 168.591 524.655C166.263 525.64 163.908 526.554 161.524 527.354C159.412 528.063 156.73 529.317 154.512 529.317H187.251L277.619 383.107C279.475 388.857 281.33 394.606 283.187 400.357C287.403 413.416 291.619 426.477 295.835 439.536C300.393 453.656 304.951 467.777 309.509 481.897C312.392 490.828 315.328 499.739 318.158 508.692C321.532 519.37 328.17 526.491 338.066 529.315H405.288C396.834 529.184 388.876 524.46 382.253 518.894C379.454 516.541 376.81 513.953 374.332 511.182C373.26 509.984 372.219 508.751 371.217 507.479C370.401 506.445 369.73 505.307 369.146 504.11V504.112Z" fill="#FFF5EA"/>
<path d="M85.1606 566.635C83.374 565.488 81.654 564.915 80.0006 564.915C78.3473 564.915 77.014 565.368 76.0006 566.275C74.9873 567.182 74.4806 568.328 74.4806 569.715C74.4806 571.075 75.0273 572.262 76.1206 573.275C77.214 574.288 78.974 575.382 81.4006 576.555C85.294 578.448 87.7606 580.475 88.8006 582.635C89.2806 583.648 89.5206 584.728 89.5206 585.875C89.5206 588.355 88.4673 590.302 86.3606 591.715C84.2806 593.128 81.8273 593.835 79.0006 593.835C77.4806 593.835 75.894 593.688 74.2406 593.395C72.5873 593.102 71.4006 592.808 70.6806 592.515C70.414 590.435 69.9606 588.062 69.3206 585.395C69.8006 585.155 70.1606 585.035 70.4006 585.035C70.6673 585.035 70.8673 585.048 71.0006 585.075C71.7473 586.942 72.4406 588.355 73.0806 589.315C73.6406 589.902 74.134 590.382 74.5606 590.755C74.9873 591.102 75.6806 591.462 76.6406 591.835C77.6273 592.208 78.814 592.395 80.2006 592.395C81.5873 592.395 82.8406 591.915 83.9606 590.955C85.0806 589.995 85.6406 588.768 85.6406 587.275C85.6406 586.075 85.4273 585.208 85.0006 584.675C84.574 584.142 84.254 583.742 84.0406 583.475C83.854 583.208 83.4806 582.902 82.9206 582.555C82.3606 582.182 81.974 581.928 81.7606 581.795C81.5473 581.662 81.0806 581.408 80.3606 581.035C79.6673 580.662 79.0406 580.328 78.4806 580.035C77.9473 579.715 77.494 579.448 77.1206 579.235C76.7473 579.022 76.174 578.688 75.4006 578.235C74.6273 577.755 74.0806 577.382 73.7606 577.115C73.4406 576.822 73.0273 576.435 72.5206 575.955C72.014 575.475 71.654 575.035 71.4406 574.635C70.9073 573.488 70.6406 572.408 70.6406 571.395C70.6406 568.942 71.6673 567.035 73.7206 565.675C75.774 564.288 78.254 563.595 81.1606 563.595C82.3606 563.595 83.694 563.755 85.1606 564.075C86.6273 564.395 87.7606 564.728 88.5606 565.075C88.3206 566.008 88.094 567.955 87.8806 570.915C87.614 571.048 87.334 571.115 87.0406 571.115C86.7473 571.115 86.494 571.062 86.2806 570.955C86.254 570.635 86.094 569.915 85.8006 568.795C85.5073 567.648 85.294 566.928 85.1606 566.635ZM123.348 578.755C123.348 584.995 120.601 589.435 115.108 592.075C115.534 592.635 116.161 593.395 116.988 594.355C117.814 595.315 118.534 596.088 119.148 596.675C119.788 597.288 120.401 597.782 120.988 598.155C121.761 598.635 122.788 599.128 124.068 599.635C124.788 599.635 125.841 599.475 127.228 599.155C127.521 599.422 127.668 599.822 127.668 600.355C127.374 600.435 126.721 600.648 125.708 600.995C123.174 601.848 121.721 602.275 121.348 602.275C119.881 602.275 117.254 600.195 113.468 596.035C112.961 595.502 112.228 594.622 111.268 593.395C110.068 593.688 109.254 593.835 108.828 593.835C104.934 593.835 101.614 592.395 98.8675 589.515C96.1208 586.608 94.7475 583.022 94.7475 578.755C94.7475 576.888 95.0008 575.182 95.5075 573.635C96.0408 572.062 96.6942 570.768 97.4675 569.755C98.2675 568.742 99.1875 567.848 100.228 567.075C101.268 566.275 102.268 565.662 103.228 565.235C104.188 564.808 105.134 564.462 106.068 564.195C107.454 563.795 108.534 563.595 109.308 563.595C113.174 563.595 116.481 565.075 119.228 568.035C121.974 570.968 123.348 574.542 123.348 578.755ZM110.068 591.755C113.081 591.755 115.361 590.742 116.908 588.715C118.481 586.662 119.268 584.035 119.268 580.835C119.268 578.355 118.814 575.968 117.908 573.675C117.028 571.382 115.721 569.475 113.988 567.955C112.254 566.408 110.308 565.635 108.148 565.635C105.134 565.635 102.814 566.688 101.188 568.795C99.5875 570.875 98.7875 573.462 98.7875 576.555C98.7875 579.035 99.2408 581.435 100.148 583.755C101.081 586.048 102.428 587.955 104.188 589.475C105.948 590.995 107.908 591.755 110.068 591.755ZM127.858 564.115L131.698 564.235C134.525 564.235 136.658 564.128 138.098 563.915C138.258 564.128 138.338 564.355 138.338 564.595L138.258 564.915C136.845 565.235 135.952 565.648 135.578 566.155C135.285 566.528 135.085 567.115 134.978 567.915C134.658 571.035 134.498 575.462 134.498 581.195C134.498 584.635 135.192 587.315 136.578 589.235C137.965 591.155 140.125 592.115 143.058 592.115C146.552 592.115 148.965 591.182 150.298 589.315C151.658 587.422 152.338 584.542 152.338 580.675V575.715C152.338 570.862 152.205 567.448 151.938 565.475C151.325 565.395 150.178 565.355 148.498 565.355C148.445 565.142 148.418 564.915 148.418 564.675C148.418 564.408 148.445 564.222 148.498 564.115L153.218 564.235C155.245 564.235 156.805 564.128 157.898 563.915C158.032 564.075 158.098 564.302 158.098 564.595L158.058 564.915C156.005 565.368 154.885 566.755 154.698 569.075C154.405 572.515 154.258 576.715 154.258 581.675C154.258 585.595 153.285 588.608 151.338 590.715C149.418 592.795 146.552 593.835 142.738 593.835C140.712 593.835 138.938 593.582 137.418 593.075C135.925 592.568 134.752 591.928 133.898 591.155C133.072 590.382 132.405 589.435 131.898 588.315C131.392 587.195 131.058 586.142 130.898 585.155C130.765 584.142 130.698 583.048 130.698 581.875V575.755C130.698 573.595 130.578 570.168 130.338 565.475C129.832 565.395 129.005 565.355 127.858 565.355C127.805 565.168 127.778 564.955 127.778 564.715C127.778 564.475 127.805 564.275 127.858 564.115ZM189.023 593.155L184.343 593.035C182.316 593.035 180.543 593.142 179.023 593.355C178.863 593.142 178.783 592.915 178.783 592.675L178.863 592.355C179.903 592.115 180.623 591.848 181.023 591.555C181.449 591.235 181.662 590.888 181.662 590.515C181.662 590.142 181.476 589.395 181.102 588.275L178.743 582.275C177.303 582.195 175.583 582.155 173.583 582.155L167.863 582.275L166.863 584.835C165.529 588.142 164.863 590.488 164.863 591.875C165.476 591.902 166.409 591.915 167.663 591.915C167.716 592.102 167.743 592.315 167.743 592.555C167.743 592.795 167.716 592.995 167.663 593.155L163.423 593.035C161.743 593.035 160.276 593.142 159.022 593.355C158.862 593.168 158.782 592.942 158.782 592.675L158.862 592.355C160.223 591.982 161.209 591.395 161.823 590.595C162.463 589.795 163.409 587.982 164.663 585.155L174.543 562.755H175.183L184.383 586.275C184.543 586.782 184.956 587.768 185.623 589.235C186.316 590.675 186.756 591.528 186.943 591.795C187.689 591.875 188.383 591.915 189.023 591.915C189.103 592.102 189.143 592.315 189.143 592.555C189.143 592.795 189.103 592.995 189.023 593.155ZM168.463 580.715L173.583 580.875C175.423 580.875 176.969 580.835 178.223 580.755L173.583 568.515L168.463 580.715ZM190.905 564.115L196.985 564.235H201.745C204.759 564.235 207.132 564.888 208.865 566.195C210.599 567.475 211.465 569.475 211.465 572.195C211.465 574.248 210.919 575.942 209.825 577.275C208.759 578.582 207.292 579.502 205.425 580.035C206.359 581.662 207.519 583.515 208.905 585.595C210.319 587.675 211.452 589.208 212.305 590.195C213.185 591.155 213.919 591.688 214.505 591.795C215.092 591.875 215.999 591.915 217.225 591.915C217.279 592.128 217.305 592.342 217.305 592.555C217.305 592.742 217.279 592.942 217.225 593.155C215.279 593.262 213.759 593.395 212.665 593.555C211.599 593.742 210.959 593.835 210.745 593.835C210.559 593.835 210.159 593.502 209.545 592.835C208.959 592.142 208.265 591.195 207.465 589.995C206.665 588.768 205.932 587.635 205.265 586.595C204.625 585.555 203.892 584.368 203.065 583.035C202.265 581.675 201.772 580.848 201.585 580.555C199.879 580.555 198.559 580.502 197.625 580.395V586.355C197.625 587.955 197.719 589.715 197.905 591.635C198.732 591.822 199.905 591.915 201.425 591.915C201.505 592.128 201.545 592.368 201.545 592.635C201.545 592.875 201.505 593.048 201.425 593.155L196.105 593.035C194.079 593.035 192.225 593.142 190.545 593.355C190.412 593.195 190.345 592.968 190.345 592.675L190.385 592.355C191.772 592.035 192.679 591.542 193.105 590.875C193.452 590.342 193.679 589.675 193.785 588.875C194.105 586.448 194.265 583.168 194.265 579.035C194.265 570.208 194.025 565.715 193.545 565.555C193.039 565.422 192.159 565.355 190.905 565.355C190.799 565.168 190.745 564.995 190.745 564.835C190.745 564.675 190.799 564.435 190.905 564.115ZM207.985 572.635C207.985 570.662 207.425 568.982 206.305 567.595C205.212 566.208 203.745 565.515 201.905 565.515C200.065 565.515 198.785 565.568 198.065 565.675C197.772 566.848 197.625 571.275 197.625 578.955C198.585 579.035 199.919 579.075 201.625 579.075C203.332 579.075 204.812 578.488 206.065 577.315C207.345 576.142 207.985 574.582 207.985 572.635ZM234.349 593.195L227.509 593.035H225.389C222.296 593.035 220.069 593.142 218.709 593.355C218.576 593.195 218.509 592.968 218.509 592.675L218.549 592.355C219.936 592.035 220.843 591.542 221.269 590.875C221.616 590.342 221.843 589.675 221.949 588.875C222.269 586.448 222.429 583.142 222.429 578.955C222.429 570.182 222.189 565.715 221.709 565.555C221.203 565.422 220.323 565.355 219.069 565.355C219.016 565.168 218.989 564.955 218.989 564.715C218.989 564.475 219.016 564.275 219.069 564.115L225.149 564.235H229.749L239.189 563.955C239.643 563.955 239.869 564.102 239.869 564.395C239.869 564.422 239.829 564.742 239.749 565.355C239.483 567.008 239.296 568.862 239.189 570.915C238.869 571.075 238.576 571.155 238.309 571.155C238.069 571.155 237.843 571.102 237.629 570.995C237.309 568.568 237.069 567.062 236.909 566.475C234.483 565.915 232.296 565.635 230.349 565.635C228.429 565.635 227.096 565.688 226.349 565.795C226.029 567.502 225.869 571.302 225.869 577.195C226.296 577.302 227.429 577.355 229.269 577.355C231.109 577.355 232.483 577.302 233.389 577.195C234.296 577.088 234.949 576.875 235.349 576.555C235.776 576.235 236.096 575.582 236.309 574.595C236.869 574.595 237.283 574.675 237.549 574.835C237.283 576.355 237.149 577.475 237.149 578.195L237.229 581.675C237.043 581.808 236.803 581.875 236.509 581.875L235.949 581.795L235.509 579.155C234.069 578.915 232.389 578.795 230.469 578.795C228.549 578.795 227.016 578.862 225.869 578.995V586.155C225.869 588.662 225.949 590.422 226.109 591.435C226.936 591.542 227.883 591.595 228.949 591.595C231.696 591.595 234.416 591.235 237.109 590.515C237.509 589.875 237.896 589.048 238.269 588.035C238.643 586.995 238.856 586.382 238.909 586.195C239.069 586.168 239.283 586.155 239.549 586.155C239.816 586.155 240.109 586.275 240.429 586.515C240.029 588.408 239.736 590.368 239.549 592.395C239.523 592.715 239.349 592.888 239.029 592.915C237.856 593.102 236.296 593.195 234.349 593.195ZM294.392 593.155L290.232 593.035C287.352 593.035 285.018 593.142 283.232 593.355C283.098 593.195 283.032 592.968 283.032 592.675L283.072 592.355C284.672 591.982 285.685 591.582 286.112 591.155C286.538 590.728 286.792 589.822 286.872 588.435C286.952 587.048 286.992 585.608 286.992 584.115C286.992 582.595 286.912 580.288 286.752 577.195L286.432 570.635C285.205 572.902 283.285 576.755 280.672 582.195C278.085 587.635 276.405 591.515 275.632 593.835H274.512C269.312 582.075 265.978 574.915 264.512 572.355L262.832 569.475C262.725 572.782 262.672 576.822 262.672 581.595C262.672 586.342 262.832 589.742 263.152 591.795C263.738 591.875 264.778 591.915 266.272 591.915C266.352 592.128 266.392 592.368 266.392 592.635C266.392 592.875 266.352 593.048 266.272 593.155L261.752 593.035C259.912 593.035 258.365 593.142 257.112 593.355C256.978 593.195 256.912 592.968 256.912 592.675L256.952 592.355C258.258 592.062 259.125 591.635 259.552 591.075C260.005 590.515 260.298 589.782 260.432 588.875C261.072 584.315 261.445 577.128 261.552 567.315C260.832 566.408 260.045 565.768 259.192 565.395C259.085 565.368 258.338 565.262 256.952 565.075L256.832 564.515C256.832 564.248 256.872 564.035 256.952 563.875L263.352 563.715C263.752 563.715 264.432 564.422 265.392 565.835C266.378 567.248 267.352 568.822 268.312 570.555C269.272 572.262 270.378 574.488 271.632 577.235C272.912 579.982 273.978 582.355 274.832 584.355C275.685 586.355 276.165 587.448 276.272 587.635C276.618 586.862 278.258 583.382 281.192 577.195C284.125 570.982 286.058 566.662 286.992 564.235C289.685 564.235 291.832 564.115 293.432 563.875C293.565 564.115 293.632 564.448 293.632 564.875C292.298 565.168 291.405 565.608 290.952 566.195C290.498 566.782 290.245 567.408 290.192 568.075C290.138 568.742 290.112 569.995 290.112 571.835C290.112 573.675 290.192 576.795 290.352 581.195C290.538 585.595 290.818 589.128 291.192 591.795C291.698 591.875 292.765 591.915 294.392 591.915C294.472 592.102 294.512 592.315 294.512 592.555C294.512 592.795 294.472 592.995 294.392 593.155ZM313.178 593.195L306.338 593.035H304.218C301.124 593.035 298.898 593.142 297.538 593.355C297.404 593.195 297.338 592.968 297.338 592.675L297.378 592.355C298.764 592.035 299.671 591.542 300.098 590.875C300.444 590.342 300.671 589.675 300.778 588.875C301.098 586.448 301.258 583.142 301.258 578.955C301.258 570.182 301.018 565.715 300.538 565.555C300.031 565.422 299.151 565.355 297.898 565.355C297.844 565.168 297.818 564.955 297.818 564.715C297.818 564.475 297.844 564.275 297.898 564.115L303.978 564.235H308.578L318.018 563.955C318.471 563.955 318.698 564.102 318.698 564.395C318.698 564.422 318.658 564.742 318.578 565.355C318.311 567.008 318.124 568.862 318.018 570.915C317.698 571.075 317.404 571.155 317.138 571.155C316.898 571.155 316.671 571.102 316.458 570.995C316.138 568.568 315.898 567.062 315.738 566.475C313.311 565.915 311.124 565.635 309.178 565.635C307.258 565.635 305.924 565.688 305.178 565.795C304.858 567.502 304.698 571.302 304.698 577.195C305.124 577.302 306.258 577.355 308.098 577.355C309.938 577.355 311.311 577.302 312.218 577.195C313.124 577.088 313.778 576.875 314.178 576.555C314.604 576.235 314.924 575.582 315.138 574.595C315.698 574.595 316.111 574.675 316.378 574.835C316.111 576.355 315.978 577.475 315.978 578.195L316.058 581.675C315.871 581.808 315.631 581.875 315.338 581.875L314.778 581.795L314.338 579.155C312.898 578.915 311.218 578.795 309.298 578.795C307.378 578.795 305.844 578.862 304.698 578.995V586.155C304.698 588.662 304.778 590.422 304.938 591.435C305.764 591.542 306.711 591.595 307.778 591.595C310.524 591.595 313.244 591.235 315.938 590.515C316.338 589.875 316.724 589.048 317.098 588.035C317.471 586.995 317.684 586.382 317.738 586.195C317.898 586.168 318.111 586.155 318.378 586.155C318.644 586.155 318.938 586.275 319.258 586.515C318.858 588.408 318.564 590.368 318.378 592.395C318.351 592.715 318.178 592.888 317.858 592.915C316.684 593.102 315.124 593.195 313.178 593.195ZM342.074 593.155L335.514 593.035C332.634 593.035 330.247 593.142 328.354 593.355C328.221 593.195 328.154 592.968 328.154 592.675L328.194 592.355C330.034 592.062 331.247 591.688 331.834 591.235C332.421 590.755 332.807 589.982 332.994 588.915C333.367 586.942 333.554 583.635 333.554 578.995C333.554 574.355 333.501 571.115 333.394 569.275C333.287 567.435 333.154 566.288 332.994 565.835C332.327 565.702 331.514 565.635 330.554 565.635C328.314 565.635 326.567 565.928 325.314 566.515L323.554 570.915C322.941 570.915 322.487 570.808 322.194 570.595L322.834 564.395C322.834 564.102 323.061 563.955 323.514 563.955L330.554 564.235H340.354L348.034 563.955C348.514 563.955 348.754 564.102 348.754 564.395C348.327 566.742 348.114 568.888 348.114 570.835C347.901 570.942 347.634 570.995 347.314 570.995C346.994 570.995 346.741 570.942 346.554 570.835C346.074 568.195 345.807 566.755 345.754 566.515C344.421 565.928 342.594 565.635 340.274 565.635C339.234 565.635 338.394 565.702 337.754 565.835C337.674 566.075 337.567 567.182 337.434 569.155C337.327 571.128 337.274 573.662 337.274 576.755V583.915C337.274 586.875 337.487 589.448 337.914 591.635C339.141 591.822 340.527 591.915 342.074 591.915C342.154 592.128 342.194 592.368 342.194 592.635C342.194 592.875 342.154 593.048 342.074 593.155ZM366.459 593.195L359.619 593.035H357.499C354.405 593.035 352.179 593.142 350.819 593.355C350.685 593.195 350.619 592.968 350.619 592.675L350.659 592.355C352.045 592.035 352.952 591.542 353.379 590.875C353.725 590.342 353.952 589.675 354.059 588.875C354.379 586.448 354.539 583.142 354.539 578.955C354.539 570.182 354.299 565.715 353.819 565.555C353.312 565.422 352.432 565.355 351.179 565.355C351.125 565.168 351.099 564.955 351.099 564.715C351.099 564.475 351.125 564.275 351.179 564.115L357.259 564.235H361.859L371.299 563.955C371.752 563.955 371.979 564.102 371.979 564.395C371.979 564.422 371.939 564.742 371.859 565.355C371.592 567.008 371.405 568.862 371.299 570.915C370.979 571.075 370.685 571.155 370.419 571.155C370.179 571.155 369.952 571.102 369.739 570.995C369.419 568.568 369.179 567.062 369.019 566.475C366.592 565.915 364.405 565.635 362.459 565.635C360.539 565.635 359.205 565.688 358.459 565.795C358.139 567.502 357.979 571.302 357.979 577.195C358.405 577.302 359.539 577.355 361.379 577.355C363.219 577.355 364.592 577.302 365.499 577.195C366.405 577.088 367.059 576.875 367.459 576.555C367.885 576.235 368.205 575.582 368.419 574.595C368.979 574.595 369.392 574.675 369.659 574.835C369.392 576.355 369.259 577.475 369.259 578.195L369.339 581.675C369.152 581.808 368.912 581.875 368.619 581.875L368.059 581.795L367.619 579.155C366.179 578.915 364.499 578.795 362.579 578.795C360.659 578.795 359.125 578.862 357.979 578.995V586.155C357.979 588.662 358.059 590.422 358.219 591.435C359.045 591.542 359.992 591.595 361.059 591.595C363.805 591.595 366.525 591.235 369.219 590.515C369.619 589.875 370.005 589.048 370.379 588.035C370.752 586.995 370.965 586.382 371.019 586.195C371.179 586.168 371.392 586.155 371.659 586.155C371.925 586.155 372.219 586.275 372.539 586.515C372.139 588.408 371.845 590.368 371.659 592.395C371.632 592.715 371.459 592.888 371.139 592.915C369.965 593.102 368.405 593.195 366.459 593.195ZM377.155 564.115L383.235 564.235H387.995C391.009 564.235 393.382 564.888 395.115 566.195C396.849 567.475 397.715 569.475 397.715 572.195C397.715 574.248 397.169 575.942 396.075 577.275C395.009 578.582 393.542 579.502 391.675 580.035C392.609 581.662 393.769 583.515 395.155 585.595C396.569 587.675 397.702 589.208 398.555 590.195C399.435 591.155 400.169 591.688 400.755 591.795C401.342 591.875 402.249 591.915 403.475 591.915C403.529 592.128 403.555 592.342 403.555 592.555C403.555 592.742 403.529 592.942 403.475 593.155C401.529 593.262 400.009 593.395 398.915 593.555C397.849 593.742 397.209 593.835 396.995 593.835C396.809 593.835 396.409 593.502 395.795 592.835C395.209 592.142 394.515 591.195 393.715 589.995C392.915 588.768 392.182 587.635 391.515 586.595C390.875 585.555 390.142 584.368 389.315 583.035C388.515 581.675 388.022 580.848 387.835 580.555C386.129 580.555 384.809 580.502 383.875 580.395V586.355C383.875 587.955 383.969 589.715 384.155 591.635C384.982 591.822 386.155 591.915 387.675 591.915C387.755 592.128 387.795 592.368 387.795 592.635C387.795 592.875 387.755 593.048 387.675 593.155L382.355 593.035C380.329 593.035 378.475 593.142 376.795 593.355C376.662 593.195 376.595 592.968 376.595 592.675L376.635 592.355C378.022 592.035 378.929 591.542 379.355 590.875C379.702 590.342 379.929 589.675 380.035 588.875C380.355 586.448 380.515 583.168 380.515 579.035C380.515 570.208 380.275 565.715 379.795 565.555C379.289 565.422 378.409 565.355 377.155 565.355C377.049 565.168 376.995 564.995 376.995 564.835C376.995 564.675 377.049 564.435 377.155 564.115ZM394.235 572.635C394.235 570.662 393.675 568.982 392.555 567.595C391.462 566.208 389.995 565.515 388.155 565.515C386.315 565.515 385.035 565.568 384.315 565.675C384.022 566.848 383.875 571.275 383.875 578.955C384.835 579.035 386.169 579.075 387.875 579.075C389.582 579.075 391.062 578.488 392.315 577.315C393.595 576.142 394.235 574.582 394.235 572.635Z" fill="#FFF5EA"/>
<path d="M86.4711 646.739H88.9071L95.0151 663.539H92.8791L91.6311 660.107H83.7471L82.5111 663.539H80.3631L86.4711 646.739ZM84.4911 658.091H90.8871L87.6831 649.319L84.4911 658.091ZM105.602 663.539V646.739H111.506C112.402 646.739 113.21 646.959 113.93 647.399C114.658 647.839 115.234 648.435 115.658 649.187C116.09 649.931 116.306 650.763 116.306 651.683C116.306 652.491 116.146 653.227 115.826 653.891C115.506 654.555 115.066 655.111 114.506 655.559C113.954 655.999 113.326 656.303 112.622 656.471L116.702 663.539H114.374L110.366 656.639H107.618V663.539H105.602ZM107.618 654.623H111.302C111.846 654.623 112.346 654.491 112.802 654.227C113.258 653.955 113.618 653.591 113.882 653.135C114.154 652.671 114.29 652.151 114.29 651.575C114.29 650.991 114.154 650.471 113.882 650.015C113.618 649.551 113.258 649.187 112.802 648.923C112.346 648.651 111.846 648.515 111.302 648.515H107.618V654.623ZM140.07 646.739V648.755H134.478V663.539H132.462V648.755H126.882V646.739H140.07ZM169.509 663.851C168.549 663.851 167.697 663.619 166.953 663.155C166.209 662.691 165.625 662.083 165.201 661.331C164.777 660.571 164.565 659.759 164.565 658.895C164.565 658.375 164.617 657.923 164.721 657.539C164.825 657.155 165.005 656.779 165.261 656.411C165.525 656.035 165.885 655.607 166.341 655.127C166.797 654.647 167.381 654.051 168.093 653.339C167.685 652.923 167.345 652.571 167.073 652.283C166.801 651.987 166.589 651.715 166.437 651.467C166.285 651.219 166.177 650.967 166.113 650.711C166.049 650.455 166.017 650.159 166.017 649.823C166.017 649.167 166.177 648.575 166.497 648.047C166.817 647.511 167.241 647.091 167.769 646.787C168.305 646.475 168.885 646.319 169.509 646.319C170.157 646.319 170.745 646.475 171.273 646.787C171.801 647.099 172.221 647.519 172.533 648.047C172.853 648.575 173.013 649.167 173.013 649.823C173.013 650.167 172.981 650.471 172.917 650.735C172.853 650.999 172.741 651.255 172.581 651.503C172.421 651.751 172.205 652.023 171.933 652.319C171.669 652.607 171.337 652.947 170.937 653.339L175.077 657.479L177.813 654.731V657.575L176.481 658.919L179.697 662.111L178.269 663.539L175.077 660.359C174.357 661.071 173.753 661.655 173.265 662.111C172.785 662.567 172.357 662.923 171.981 663.179C171.613 663.435 171.237 663.611 170.853 663.707C170.477 663.803 170.029 663.851 169.509 663.851ZM169.509 661.835C169.877 661.835 170.189 661.795 170.445 661.715C170.709 661.627 170.973 661.479 171.237 661.271C171.509 661.055 171.829 660.759 172.197 660.383C172.573 659.999 173.057 659.507 173.649 658.907L169.509 654.767C168.901 655.383 168.405 655.883 168.021 656.267C167.637 656.643 167.341 656.963 167.133 657.227C166.933 657.491 166.793 657.751 166.713 658.007C166.633 658.263 166.593 658.567 166.593 658.919C166.593 659.471 166.725 659.967 166.989 660.407C167.261 660.847 167.617 661.195 168.057 661.451C168.497 661.707 168.981 661.835 169.509 661.835ZM169.509 652.175C169.981 651.703 170.337 651.347 170.577 651.107C170.825 650.867 170.993 650.659 171.081 650.483C171.169 650.307 171.213 650.079 171.213 649.799C171.213 649.303 171.041 648.895 170.697 648.575C170.353 648.255 169.957 648.095 169.509 648.095C169.045 648.095 168.649 648.263 168.321 648.599C167.993 648.935 167.829 649.335 167.829 649.799C167.829 650.079 167.877 650.315 167.973 650.507C168.069 650.691 168.237 650.903 168.477 651.143C168.717 651.383 169.061 651.727 169.509 652.175ZM204.673 663.539V646.739H214.525V648.755H206.689V653.531H213.373V655.547H206.689V663.539H204.673ZM231.18 663.851C229.836 663.851 228.668 663.523 227.676 662.867C226.692 662.211 225.932 661.331 225.396 660.227C224.868 659.115 224.604 657.883 224.604 656.531V646.739H226.62V656.531C226.62 657.491 226.796 658.375 227.148 659.183C227.508 659.991 228.024 660.635 228.696 661.115C229.376 661.595 230.204 661.835 231.18 661.835C232.172 661.835 233.004 661.595 233.676 661.115C234.348 660.627 234.856 659.983 235.2 659.183C235.552 658.375 235.728 657.491 235.728 656.531V646.739H237.744V656.531C237.744 657.547 237.592 658.499 237.288 659.387C236.984 660.267 236.544 661.043 235.968 661.715C235.4 662.387 234.712 662.911 233.904 663.287C233.096 663.663 232.188 663.851 231.18 663.851ZM248.871 663.539V646.739H254.775C255.671 646.739 256.479 646.959 257.199 647.399C257.927 647.839 258.503 648.435 258.927 649.187C259.359 649.931 259.575 650.763 259.575 651.683C259.575 652.491 259.415 653.227 259.095 653.891C258.775 654.555 258.335 655.111 257.775 655.559C257.223 655.999 256.595 656.303 255.891 656.471L259.971 663.539H257.643L253.635 656.639H250.887V663.539H248.871ZM250.887 654.623H254.571C255.115 654.623 255.615 654.491 256.071 654.227C256.527 653.955 256.887 653.591 257.151 653.135C257.423 652.671 257.559 652.151 257.559 651.575C257.559 650.991 257.423 650.471 257.151 650.015C256.887 649.551 256.527 649.187 256.071 648.923C255.615 648.651 255.115 648.515 254.571 648.515H250.887V654.623ZM271.146 663.539V646.739H273.33L281.718 659.891V646.739H283.734V663.539H281.562L273.162 650.387V663.539H271.146ZM295.375 663.539V646.739H297.391V663.539H295.375ZM321.748 646.739V648.755H316.156V663.539H314.14V648.755H308.56V646.739H321.748ZM339.133 663.851C337.789 663.851 336.621 663.523 335.629 662.867C334.645 662.211 333.885 661.331 333.349 660.227C332.821 659.115 332.557 657.883 332.557 656.531V646.739H334.573V656.531C334.573 657.491 334.749 658.375 335.101 659.183C335.461 659.991 335.977 660.635 336.649 661.115C337.329 661.595 338.157 661.835 339.133 661.835C340.125 661.835 340.957 661.595 341.629 661.115C342.301 660.627 342.809 659.983 343.153 659.183C343.505 658.375 343.681 657.491 343.681 656.531V646.739H345.697V656.531C345.697 657.547 345.545 658.499 345.241 659.387C344.937 660.267 344.497 661.043 343.921 661.715C343.353 662.387 342.665 662.911 341.857 663.287C341.049 663.663 340.141 663.851 339.133 663.851ZM356.824 663.539V646.739H362.728C363.624 646.739 364.432 646.959 365.152 647.399C365.88 647.839 366.456 648.435 366.88 649.187C367.312 649.931 367.528 650.763 367.528 651.683C367.528 652.491 367.368 653.227 367.048 653.891C366.728 654.555 366.288 655.111 365.728 655.559C365.176 655.999 364.548 656.303 363.844 656.471L367.924 663.539H365.596L361.588 656.639H358.84V663.539H356.824ZM358.84 654.623H362.524C363.068 654.623 363.568 654.491 364.024 654.227C364.48 653.955 364.84 653.591 365.104 653.135C365.376 652.671 365.512 652.151 365.512 651.575C365.512 650.991 365.376 650.471 365.104 650.015C364.84 649.551 364.48 649.187 364.024 648.923C363.568 648.651 363.068 648.515 362.524 648.515H358.84V654.623ZM379.099 663.539V646.739H389.407V648.755H381.115V653.531H387.907V655.547H381.115V661.523H389.407V663.539H379.099Z" fill="#FFF5EA"/>
</g>
<rect x="10" y="10" width="450" height="952" rx="60" stroke="white" stroke-opacity="0.21" stroke-width="20"/>
<defs>
<filter id="filter0_f_486_5719" x="279.773" y="49.1816" width="7.45508" height="4.18164" filterUnits="userSpaceOnUse" color-interpolation-filters="sRGB">
<feFlood flood-opacity="0" result="BackgroundImageFix"/>
<feBlend mode="normal" in="SourceGraphic" in2="BackgroundImageFix" result="shape"/>
<feGaussianBlur stdDeviation="0.5" result="effect1_foregroundBlur_486_5719"/>
</filter>
<filter id="filter1_f_486_5719" x="279.773" y="53.5454" width="7.45508" height="5.27295" filterUnits="userSpaceOnUse" color-interpolation-filters="sRGB">
<feFlood flood-opacity="0" result="BackgroundImageFix"/>
<feBlend mode="normal" in="SourceGraphic" in2="BackgroundImageFix" result="shape"/>
<feGaussianBlur stdDeviation="0.5" result="effect1_foregroundBlur_486_5719"/>
</filter>
<clipPath id="clip0_486_5719">
<rect x="20" y="20" width="430" height="932" rx="50" fill="white"/>
</clipPath>
<clipPath id="clip1_486_5719">
<rect width="22.7485" height="32.0501" fill="white" transform="translate(224.363 325)"/>
</clipPath>
</defs>
</svg>
