<svg width="646" height="478" viewBox="0 0 646 478" fill="none" xmlns="http://www.w3.org/2000/svg" xmlns:xlink="http://www.w3.org/1999/xlink">
<path d="M458.537,350.586L110.656,350.586C107.556,350.582 104.585,349.348 102.393,347.154C100.201,344.96 98.968,341.986 98.965,338.882L98.965,55.349C98.968,52.246 100.201,49.272 102.393,47.078C104.585,44.884 107.556,43.65 110.656,43.646L458.537,43.646C461.635,43.65 464.607,44.884 466.799,47.078C468.991,49.272 470.225,52.246 470.227,55.349L470.227,338.882C470.225,341.986 468.991,344.96 466.799,347.154C464.607,349.348 461.635,350.582 458.537,350.586L458.537,350.586Z" fill="#E6E6E6"/>
<path d="M118.544,51.976C115.558,51.979 112.696,53.168 110.584,55.281C108.473,57.395 107.285,60.26 107.282,63.249L107.282,330.99C107.286,333.978 108.473,336.844 110.585,338.956C112.696,341.07 115.558,342.258 118.544,342.262L356.654,342.262C384.56,342.23 411.314,331.12 431.048,311.368C450.78,291.616 461.88,264.838 461.912,236.904L461.912,63.249C461.908,60.26 460.72,57.395 458.61,55.281C456.498,53.168 453.636,51.979 450.65,51.976L118.544,51.976Z" fill="#FFFFFF"/>
<path d="M395.1,172.391L332.021,172.391C330.705,172.389 329.444,171.866 328.514,170.934C327.583,170.003 327.06,168.741 327.059,167.424L327.059,135.998C327.06,134.682 327.583,133.419 328.514,132.488C329.444,131.557 330.705,131.033 332.021,131.032L395.1,131.032C396.415,131.033 397.676,131.557 398.607,132.488C399.537,133.419 400.06,134.682 400.062,135.998C403.965,147.119 404.519,157.686 400.062,167.424C400.06,168.741 399.537,170.003 398.607,170.934C397.676,171.866 396.415,172.389 395.1,172.391L395.1,172.391Z" fill="#E6E6E6"/>
<path d="M387.627,169.353L334.035,169.353C332.917,169.352 331.846,168.907 331.055,168.116C330.265,167.325 329.82,166.252 329.819,165.134L329.819,138.435C329.82,137.316 330.265,136.243 331.055,135.452C331.846,134.661 332.917,134.216 334.035,134.215L387.627,134.215C388.744,134.216 389.816,134.661 390.606,135.452C391.397,136.243 391.841,137.316 391.843,138.435C395.459,147.943 396.041,156.941 391.843,165.134C391.841,166.252 391.397,167.325 390.606,168.116C389.816,168.907 388.744,169.352 387.627,169.353L387.627,169.353Z" fill="#FFFFFF"/>
<path d="M384.737,188.852L342.244,188.852C341.625,188.854 341.011,188.733 340.439,188.497C339.866,188.261 339.345,187.914 338.907,187.477C338.468,187.04 338.119,186.52 337.881,185.948C337.643,185.376 337.52,184.762 337.519,184.142C337.518,183.522 337.639,182.908 337.875,182.335C338.111,181.762 338.457,181.241 338.894,180.802C339.331,180.363 339.851,180.015 340.422,179.776C340.994,179.538 341.607,179.415 342.227,179.414L384.737,179.414C385.986,179.417 387.182,179.915 388.065,180.8C388.947,181.684 389.442,182.883 389.442,184.133C389.442,185.383 388.947,186.582 388.065,187.467C387.182,188.352 385.986,188.85 384.737,188.852L384.737,188.852Z" fill="#E6E6E6"/>
<path d="M356.166,141.424C355.678,141.426 355.209,141.621 354.864,141.967C354.518,142.313 354.324,142.782 354.323,143.272L354.323,163.274C354.323,163.597 354.408,163.914 354.569,164.194C354.73,164.474 354.961,164.707 355.24,164.869C355.519,165.032 355.836,165.118 356.158,165.119C356.481,165.12 356.799,165.037 357.079,164.877L374.717,154.81C375,154.649 375.236,154.415 375.4,154.132C375.563,153.85 375.649,153.529 375.648,153.202C375.647,152.876 375.56,152.555 375.394,152.274C375.229,151.992 374.992,151.76 374.708,151.6L357.071,141.663C356.795,141.507 356.484,141.424 356.166,141.424Z" fill="#E6E6E6"/>
<path d="M613.495,439.73C612.522,438.492 611.201,437.574 609.702,437.095C608.203,436.615 606.595,436.596 605.085,437.04L604.755,437.138L601.793,448.711C601.349,446.986 600.4,443.092 599.801,439.281L599.75,438.966L599.456,439.095C596.36,440.465 593.449,442.221 590.793,444.322C586.087,448.1 582.26,452.858 579.577,458.266C576.895,463.674 575.421,469.603 575.258,475.639L575.253,475.861L575.247,476L575.64,475.861L584.055,472.85C587.781,473.178 591.533,472.67 595.037,471.362C598.541,470.054 601.71,467.979 604.311,465.289C607.711,461.7 610.043,457.083 612.298,452.616C612.958,451.314 613.634,449.971 614.326,448.68C615.097,447.276 615.43,445.673 615.282,444.078C615.134,442.482 614.511,440.968 613.495,439.73L613.495,439.73Z" fill="#F2F2F2"/>
<path d="M398.596,144.591C398.765,145.468 399.124,146.296 399.647,147.018C400.17,147.741 400.846,148.339 401.625,148.772C402.405,149.205 403.269,149.462 404.159,149.524C405.048,149.586 405.94,149.452 406.772,149.132L431.922,178.417L435.106,167.606L410.172,140.813C409.542,139.45 408.434,138.365 407.058,137.765C405.683,137.164 404.135,137.09 402.708,137.556C401.281,138.021 400.074,138.995 399.316,140.292C398.559,141.588 398.302,143.118 398.596,144.591L398.596,144.591Z" fill="#FFB8B8"/>
<path d="M499.957,468.86L491.634,468.86L487.674,436.726L499.959,436.726L499.957,468.86Z" fill="#FFB6B6"/>
<path d="M499.735,466.139L490.848,462.521L490.594,462.416L485.687,466.139C482.917,466.139 480.26,467.241 478.302,469.202C476.343,471.163 475.242,473.822 475.241,476.595L475.241,476.934L502.077,476.934L502.077,466.139L499.735,466.139Z" fill="#2F2E41"/>
<path d="M559.331,468.86L551.008,468.86L547.048,436.726L559.333,436.726L559.331,468.86Z" fill="#FFB6B6"/>
<path d="M559.109,466.139L550.222,462.521L549.968,462.416L545.062,466.139C542.291,466.139 539.635,467.241 537.676,469.202C535.717,471.163 534.616,473.822 534.616,476.595L534.616,476.934L561.451,476.934L561.451,466.139L559.109,466.139Z" fill="#2F2E41"/>
<path d="M539.687,276.97C539.687,276.97 550.127,287.841 550.127,296.773C550.127,305.705 547.517,317.97 550.127,320.654C552.737,323.339 555.999,326.604 552.084,330.523C548.17,334.441 546.212,336.4 548.822,339.013C551.432,341.625 550.127,387.341 550.127,387.341L563.829,448.731L546.567,448.731L524.681,387.341L518.809,336.4L499.818,385.382L501.915,449.257L483.869,448.731L476.399,380.81C476.399,380.81 487.491,316.201 485.533,314.545C483.576,312.889 485.533,309.547 485.533,309.547L490.753,284.807L539.687,276.97Z" fill="#2F2E41"/>
<path d="M519.248,199.893C519.248,199.893 522.798,185.892 506.444,181.878C490.091,177.864 443.344,172.707 443.344,172.707L419.72,147.614L411.715,159.251L438.198,192.193L500.949,205.094L519.248,199.893Z" fill="#3F3D56"/>
<path d="M415.605,158.393C416.339,157.442 416.913,156.377 417.305,155.241L420.693,146.908L419.814,146.872C418.597,146.642 417.345,146.673 416.141,146.962C414.937,147.251 413.807,147.791 412.826,148.548C411.845,149.304 411.034,150.259 410.448,151.351C409.861,152.443 409.512,153.646 409.423,154.882C409.312,155.952 409.503,157.031 409.976,157.996C410.217,158.475 410.568,158.889 410.999,159.206C411.431,159.523 411.932,159.733 412.46,159.819C413.06,159.851 413.659,159.739 414.207,159.49C414.754,159.242 415.234,158.866 415.605,158.393Z" fill="#E6E6E6"/>
<path d="M487.421,288.143L485.464,302.346C485.464,302.346 489.379,306.554 491.336,306.028C493.293,305.502 500.47,302.44 500.47,302.44C500.47,302.44 508.952,307.08 513.52,307.606C518.087,308.132 542.228,304.976 542.88,303.398C543.533,301.82 551.116,295.643 551.116,295.643L548.1,277.623L487.421,288.143Z" fill="#E6E6E6"/>
<path d="M550.991,238.458C550.991,238.458 549.334,252.153 550.638,253.413C551.943,254.667 549.334,262.602 546.724,267.827C544.114,273.051 548.681,273.704 548.681,277.623C548.681,281.541 550.638,295.909 550.638,295.909C550.638,295.909 530.412,297.215 527.15,293.95C523.887,290.685 518.668,293.297 511.491,300.481C504.313,307.665 488.726,301.787 485.464,298.522C482.201,295.256 488.002,283.501 489.959,281.221C491.917,278.942 488.074,281.581 486.116,274.358C484.159,267.134 488.002,267.827 491.264,264.561C494.526,261.296 491.264,255.418 488.654,249.54C486.044,243.663 488.002,199.906 488.002,189.457C488.002,179.007 502.356,177.701 502.356,177.701L508.039,170.55L512.215,165.293L520.397,164.966L520.612,164.96L528.526,164.64L532.369,169.12L540.851,179.007L550.638,180.967C558.468,183.579 556.511,199.906 556.511,199.906L550.991,238.458Z" fill="#3F3D56"/>
<path d="M519.993,162.133C529.256,162.133 536.765,154.617 536.765,145.345C536.765,136.074 529.256,128.558 519.993,128.558C510.73,128.558 503.221,136.074 503.221,145.345C503.221,154.617 510.73,162.133 519.993,162.133Z" fill="#FFB6B6"/>
<path d="M539.439,139.698C534.826,136.866 535.417,129.462 530.973,126.877C528.763,125.602 526.279,124.88 523.732,124.773C521.184,124.666 518.648,125.177 516.34,126.261C513.21,124.921 509.459,125.991 506.954,128.412C504.45,130.832 503.094,134.404 502.695,137.995C502.406,141.604 502.665,145.235 503.462,148.766C503.711,147.348 503.96,145.929 504.209,144.51C508.616,143.546 513.023,142.582 517.43,141.618C516.26,142.671 515.089,143.723 513.919,144.776C519.907,146.14 526.19,145.157 531.476,142.027C537.232,144.61 536.189,150.411 531.136,158.109C533.094,161.374 544.695,142.925 539.439,139.698Z" fill="#2F2E41"/>
<path d="M532.369,169.12C532.332,169.15 532.293,169.178 532.252,169.205C530.87,170.03 529.288,170.459 527.678,170.445C525.572,170.621 523.481,169.965 521.852,168.617C520.997,167.807 517.598,169.518 515.366,170.465C513.026,171.436 510.401,171.466 508.039,170.55L512.215,165.293L519.097,163.765L520.815,163.765L528.526,164.64L532.369,169.12Z" fill="#E6E6E6"/>
<path d="M644.983,477.736L411.522,478C411.388,478.001 411.254,477.976 411.13,477.925C411.005,477.874 410.891,477.799 410.796,477.705C410.7,477.61 410.624,477.498 410.572,477.373C410.519,477.249 410.492,477.116 410.491,476.981C410.491,476.847 410.517,476.713 410.568,476.589C410.618,476.464 410.693,476.351 410.788,476.255C410.883,476.159 410.996,476.083 411.12,476.031C411.244,475.98 411.377,475.953 411.512,475.952L411.522,475.952L644.983,475.688C645.253,475.689 645.511,475.798 645.703,475.99C645.893,476.182 645.999,476.441 645.999,476.712C645.999,476.982 645.893,477.242 645.703,477.434C645.511,477.626 645.253,477.734 644.983,477.736L644.983,477.736Z" fill="#CACACA"/>
<path d="M365.446,133.884L363.728,133.884L363.728,10.879L431.302,10.879L431.302,12.599L365.446,12.599L365.446,133.884Z" fill="#3F3D56"/>
<path d="M483.855,0L438.323,0C435.361,0 432.52,1.178 430.426,3.274C428.331,5.371 427.155,8.214 427.155,11.179C427.155,14.144 428.331,16.987 430.426,19.084C432.52,21.18 435.361,22.358 438.323,22.358L483.855,22.358C486.817,22.358 489.658,21.18 491.753,19.084C493.847,16.987 495.024,14.144 495.024,11.179C495.024,8.214 493.847,5.371 491.753,3.274C489.658,1.178 486.817,0 483.855,0L483.855,0Z" fill="#6C63FF"/>
<path d="M363.59,145.137C369.258,145.137 373.853,140.538 373.853,134.864C373.853,129.191 369.258,124.592 363.59,124.592C357.922,124.592 353.327,129.191 353.327,134.864C353.327,140.538 357.922,145.137 363.59,145.137Z" fill="#6C63FF"/>
<path d="M239.922,173.464L284.944,163.036L297.867,160.043C299.484,159.668 298.812,157.177 297.195,157.552L252.173,167.98L239.25,170.973C237.633,171.348 238.305,173.839 239.922,173.464L239.922,173.464Z" fill="#F2F2F2"/>
<path d="M286.413,146.306L310.515,157.404C311.338,157.688 312.108,158.106 312.796,158.639C313.461,159.292 312.977,159.919 312.434,160.487C310.812,162.003 309.099,163.419 307.304,164.726L297.036,173.082C295.747,174.131 297.566,175.961 298.842,174.922L307.786,167.644L312.258,164.005C313.524,162.974 315.067,161.922 315.576,160.28C316.645,156.829 312.424,155.457 310.078,154.377L299.582,149.544L287.726,144.085C286.231,143.397 284.907,145.613 286.413,146.306Z" fill="#F2F2F2"/>
<path d="M388.723,260.401C385.028,256.755 380.094,254.744 375.147,253.457C369.505,252.094 363.792,251.046 358.033,250.318C352.071,249.46 346.084,248.798 340.074,248.333C334.072,247.869 328.059,247.604 322.036,247.537C316.659,247.387 311.278,247.565 305.923,248.071C300.861,248.516 295.92,249.872 291.338,252.072C287.301,254.087 283.909,257.194 281.548,261.042C279.263,264.638 278.206,268.878 278.535,273.126C278.746,275.199 279.391,277.205 280.428,279.011C281.643,281.008 283.193,282.78 285.008,284.252C288.756,287.419 293.236,289.735 296.46,293.5C297.311,294.486 298.055,295.56 298.678,296.704C299.084,297.576 299.732,298.312 300.544,298.825C301.321,299.269 302.212,299.473 303.105,299.411C303.998,299.349 304.852,299.023 305.56,298.475C306.511,297.576 307.351,296.567 308.063,295.469L310.773,291.979C310.969,291.666 311.196,291.373 311.45,291.106C311.633,290.955 311.332,291.088 311.391,291.05C311.424,291.029 311.482,291.041 311.518,291.026C311.698,290.974 311.883,290.94 312.07,290.923C314.049,290.559 316.032,290.219 318.019,289.902C325.357,288.717 332.742,287.739 340.157,287.212C343.98,286.907 347.816,286.815 351.649,286.938C356.605,287.141 361.492,288.126 366.43,288.551C371.746,289.008 377.33,288.945 382.339,286.893C386.457,285.324 389.94,282.433 392.242,278.672C393.272,276.867 393.882,274.853 394.027,272.78C394.292,268.076 392.007,263.641 388.723,260.401Z" fill="#E6E6E6"/>
<path d="M379.605,261.387C376.266,258.094 371.808,256.276 367.337,255.112C362.238,253.881 357.075,252.934 351.872,252.276C346.483,251.501 341.074,250.903 335.642,250.482C330.219,250.063 324.785,249.824 319.342,249.763C314.483,249.627 309.62,249.788 304.781,250.246C300.206,250.648 295.741,251.873 291.601,253.861C287.953,255.682 284.887,258.49 282.754,261.967C280.689,265.216 279.734,269.048 280.031,272.887C280.222,274.761 280.804,276.573 281.741,278.205C282.84,280.01 284.24,281.612 285.881,282.941C289.267,285.804 293.316,287.896 296.23,291.298C296.999,292.189 297.671,293.16 298.234,294.194C298.601,294.982 299.186,295.647 299.92,296.111C300.622,296.512 301.428,296.696 302.234,296.64C303.041,296.584 303.813,296.29 304.453,295.795C305.312,294.982 306.071,294.07 306.715,293.078L309.164,289.924C309.341,289.641 309.546,289.377 309.776,289.135C309.941,288.999 309.669,289.119 309.723,289.085C309.752,289.066 309.804,289.076 309.837,289.063C310,289.016 310.167,288.985 310.336,288.97C312.124,288.641 313.916,288.333 315.712,288.047C322.343,286.976 329.016,286.093 335.718,285.617C339.172,285.34 342.639,285.258 346.102,285.369C350.58,285.552 354.997,286.442 359.459,286.826C364.263,287.24 369.309,287.182 373.836,285.328C377.557,283.911 380.705,281.298 382.785,277.899C383.716,276.268 384.267,274.448 384.398,272.574C384.638,268.324 382.573,264.316 379.605,261.387Z" fill="#FFFFFF"/>
<path d="M370.751,264.588L306.454,264.588C306.27,264.589 306.088,264.554 305.917,264.484C305.747,264.414 305.592,264.312 305.462,264.182C305.331,264.052 305.227,263.898 305.156,263.728C305.085,263.558 305.049,263.376 305.048,263.192C305.047,263.008 305.083,262.826 305.153,262.655C305.223,262.485 305.326,262.33 305.456,262.2C305.586,262.069 305.74,261.966 305.91,261.895C306.079,261.824 306.261,261.788 306.445,261.788L370.751,261.788C371.122,261.788 371.478,261.935 371.74,262.198C372.002,262.46 372.15,262.816 372.15,263.188C372.15,263.559 372.002,263.915 371.74,264.178C371.478,264.441 371.122,264.588 370.751,264.588L370.751,264.588Z" fill="#E6E6E6"/>
<path d="M370.751,273.183L306.454,273.183C306.27,273.184 306.088,273.149 305.917,273.079C305.747,273.009 305.592,272.907 305.462,272.777C305.331,272.647 305.227,272.493 305.156,272.323C305.085,272.153 305.049,271.971 305.048,271.787C305.047,271.603 305.083,271.421 305.153,271.25C305.223,271.08 305.326,270.925 305.456,270.795C305.586,270.664 305.74,270.561 305.91,270.49C306.079,270.419 306.261,270.383 306.445,270.383L370.751,270.383C371.122,270.383 371.478,270.53 371.74,270.793C372.002,271.055 372.15,271.412 372.15,271.783C372.15,272.154 372.002,272.511 371.74,272.773C371.478,273.036 371.122,273.183 370.751,273.183Z" fill="#E6E6E6"/>
<path d="M313.947,281.778L306.454,281.778C306.084,281.777 305.729,281.629 305.468,281.366C305.206,281.104 305.06,280.748 305.06,280.378C305.06,280.007 305.206,279.652 305.468,279.39C305.729,279.127 306.084,278.979 306.454,278.978L313.947,278.978C314.317,278.979 314.671,279.127 314.933,279.39C315.194,279.652 315.341,280.007 315.341,280.378C315.341,280.748 315.194,281.104 314.933,281.366C314.671,281.629 314.317,281.777 313.947,281.778L313.947,281.778Z" fill="#E6E6E6"/>
<path d="M302.329,315.366C305.613,315.366 308.275,312.701 308.275,309.414C308.275,306.127 305.613,303.463 302.329,303.463C299.046,303.463 296.383,306.127 296.383,309.414C296.383,312.701 299.046,315.366 302.329,315.366Z" fill="#E6E6E6"/>
<path d="M308.58,323.592L306.862,323.592L306.862,389.842L364.986,389.842L364.986,388.122L308.58,388.122L308.58,323.592Z" fill="#3F3D56"/>
<path d="M428.708,389.542C428.705,386.578 427.527,383.736 425.434,381.64C423.34,379.545 420.501,378.366 417.54,378.363L372.007,378.363C369.045,378.363 366.205,379.541 364.11,381.637C362.016,383.734 360.839,386.577 360.839,389.542C360.839,392.507 362.016,395.35 364.11,397.447C366.205,399.543 369.045,400.721 372.007,400.721L417.54,400.721C420.501,400.718 423.34,399.539 425.434,397.444C427.527,395.348 428.705,392.506 428.708,389.542L428.708,389.542Z" fill="#6C63FF"/>
<path d="M306.524,328.584C312.192,328.584 316.787,323.985 316.787,318.311C316.787,312.638 312.192,308.039 306.524,308.039C300.856,308.039 296.262,312.638 296.262,318.311C296.262,323.985 300.856,328.584 306.524,328.584Z" fill="#6C63FF"/>
<path d="M216.786,170.799L162.778,170.799C160.27,170.796 157.867,169.798 156.094,168.023C154.321,166.248 153.324,163.842 153.321,161.333L153.321,125.704C153.324,123.195 154.321,120.789 156.094,119.014C157.867,117.24 160.27,116.242 162.778,116.239L216.786,116.239C219.293,116.242 221.697,117.24 223.47,119.014C225.242,120.789 226.24,123.195 226.243,125.704L226.243,161.333C226.24,163.843 225.242,166.248 223.47,168.023C221.697,169.798 219.293,170.796 216.786,170.799L216.786,170.799Z" fill="#E6E6E6"/>
<path d="M210.851,168.879L163.847,168.879C161.665,168.877 159.573,168.008 158.03,166.463C156.487,164.919 155.619,162.825 155.616,160.641L155.616,129.633C155.619,127.449 156.487,125.355 158.03,123.81C159.573,122.266 161.665,121.397 163.847,121.395L210.851,121.395C213.033,121.397 215.125,122.266 216.668,123.81C218.211,125.355 219.079,127.449 219.081,129.633L219.081,160.641C219.079,162.825 218.211,164.919 216.668,166.463C215.125,168.008 213.033,168.877 210.851,168.879L210.851,168.879Z" fill="#FFFFFF"/>
<path d="M224.393,202.898L155.093,202.898C154.664,202.898 154.253,202.727 153.95,202.424C153.647,202.12 153.476,201.709 153.476,201.279C153.476,200.85 153.647,200.438 153.95,200.135C154.253,199.831 154.664,199.661 155.093,199.661L224.393,199.661C224.822,199.661 225.233,199.831 225.536,200.135C225.84,200.438 226.01,200.85 226.01,201.279C226.01,201.709 225.84,202.12 225.536,202.424C225.233,202.727 224.822,202.898 224.393,202.898L224.393,202.898Z" fill="#E6E6E6"/>
<path d="M224.393,193.649L155.093,193.649C154.664,193.649 154.253,193.479 153.95,193.175C153.647,192.871 153.476,192.46 153.476,192.031C153.476,191.601 153.647,191.19 153.95,190.886C154.253,190.583 154.664,190.412 155.093,190.412L224.393,190.412C224.822,190.412 225.233,190.583 225.536,190.886C225.84,191.19 226.01,191.601 226.01,192.031C226.01,192.46 225.84,192.871 225.536,193.175C225.233,193.479 224.822,193.649 224.393,193.649L224.393,193.649Z" fill="#E6E6E6"/>
<path d="M224.393,212.147L155.093,212.147C154.665,212.146 154.255,211.975 153.952,211.671C153.65,211.368 153.48,210.957 153.48,210.528C153.48,210.099 153.65,209.688 153.952,209.385C154.255,209.081 154.665,208.911 155.093,208.91L224.393,208.91C224.606,208.909 224.816,208.951 225.013,209.032C225.21,209.113 225.388,209.232 225.539,209.382C225.689,209.533 225.809,209.711 225.89,209.908C225.972,210.104 226.014,210.315 226.014,210.528C226.014,210.741 225.972,210.952 225.89,211.148C225.809,211.345 225.689,211.524 225.539,211.674C225.388,211.824 225.21,211.943 225.013,212.024C224.816,212.106 224.606,212.147 224.393,212.147L224.393,212.147Z" fill="#E6E6E6"/>
<path d="M224.393,221.395L155.093,221.395C154.665,221.394 154.255,221.223 153.952,220.92C153.65,220.617 153.48,220.205 153.48,219.777C153.48,219.348 153.65,218.937 153.952,218.634C154.255,218.33 154.665,218.159 155.093,218.158L224.393,218.158C224.606,218.158 224.816,218.199 225.013,218.28C225.21,218.362 225.388,218.481 225.539,218.631C225.689,218.781 225.809,218.96 225.89,219.157C225.972,219.353 226.014,219.564 226.014,219.777C226.014,219.99 225.972,220.2 225.89,220.397C225.809,220.594 225.689,220.772 225.539,220.923C225.388,221.073 225.21,221.192 225.013,221.273C224.816,221.354 224.606,221.396 224.393,221.395L224.393,221.395Z" fill="#E6E6E6"/>
<path d="M224.393,230.644L155.093,230.644C154.664,230.644 154.253,230.474 153.95,230.17C153.647,229.867 153.476,229.455 153.476,229.026C153.476,228.596 153.647,228.185 153.95,227.881C154.253,227.578 154.664,227.407 155.093,227.407L224.393,227.407C224.822,227.407 225.233,227.578 225.536,227.881C225.84,228.185 226.01,228.596 226.01,229.026C226.01,229.455 225.84,229.867 225.536,230.17C225.233,230.474 224.822,230.644 224.393,230.644L224.393,230.644Z" fill="#E6E6E6"/>
<path d="M224.393,239.893L155.093,239.893C154.664,239.893 154.253,239.722 153.95,239.419C153.647,239.115 153.476,238.704 153.476,238.274C153.476,237.845 153.647,237.433 153.95,237.13C154.253,236.826 154.664,236.656 155.093,236.656L224.393,236.656C224.822,236.656 225.233,236.826 225.536,237.13C225.84,237.433 226.01,237.845 226.01,238.274C226.01,238.704 225.84,239.115 225.536,239.419C225.233,239.722 224.822,239.893 224.393,239.893L224.393,239.893Z" fill="#E6E6E6"/>
<path d="M186.278,218.682L187.997,218.682L187.997,284.932L63.722,284.932L63.722,283.212L186.278,283.212L186.278,218.682Z" fill="#3F3D56"/>
<path d="M11.168,295.811L56.701,295.811C59.663,295.811 62.503,294.633 64.598,292.537C66.692,290.44 67.869,287.597 67.869,284.632C67.869,281.667 66.692,278.824 64.598,276.728C62.503,274.631 59.663,273.453 56.701,273.453L11.168,273.453C8.206,273.453 5.366,274.631 3.271,276.728C1.177,278.824 0,281.667 0,284.632C0,287.597 1.177,290.44 3.271,292.537C5.366,294.633 8.206,295.811 11.168,295.811L11.168,295.811Z" fill="#6C63FF"/>
<path d="M188.334,223.674C194.002,223.674 198.597,219.075 198.597,213.402C198.597,207.728 194.002,203.129 188.334,203.129C182.666,203.129 178.071,207.728 178.071,213.402C178.071,219.075 182.666,223.674 188.334,223.674Z" fill="#6C63FF"/>
<path d="M241.379,216.256C256.447,219.461 252.614,220.087 267.681,223.292L280.656,226.053C282.279,226.398 282.723,223.856 281.1,223.511C266.032,220.306 269.865,219.68 254.797,216.475L241.823,213.714C240.2,213.369 239.755,215.911 241.379,216.256L241.379,216.256Z" fill="#F2F2F2"/>
<path d="M276.083,208.756L293.232,229.017C293.857,229.624 294.378,230.328 294.776,231.103C295.103,231.976 294.399,232.339 293.667,232.624C291.556,233.311 289.406,233.868 287.227,234.292L274.391,237.515C272.78,237.92 273.654,240.349 275.251,239.948L286.43,237.14L292.02,235.737C293.604,235.339 295.446,235.039 296.601,233.766C299.029,231.093 295.784,228.062 294.115,226.09L286.647,217.266L278.211,207.299C277.148,206.043 275.012,207.49 276.083,208.756L276.083,208.756Z" fill="#F2F2F2"/>
<path d="M565.354,335.568C578.534,335.568 589.22,324.873 589.22,311.68C589.22,298.487 578.534,287.791 565.354,287.791C552.173,287.791 541.488,298.487 541.488,311.68C541.488,324.873 552.173,335.568 565.354,335.568Z" fill="#6C63FF"/>
<path d="M562.098,324.113C561.686,324.113 561.279,324.017 560.911,323.832C560.542,323.648 560.222,323.38 559.974,323.05L553.463,314.36C553.254,314.081 553.102,313.763 553.015,313.425C552.928,313.087 552.909,312.736 552.958,312.39C553.007,312.045 553.124,311.712 553.302,311.412C553.479,311.111 553.714,310.849 553.993,310.64C554.271,310.43 554.589,310.278 554.926,310.191C555.264,310.104 555.616,310.085 555.961,310.134C556.306,310.183 556.638,310.3 556.938,310.477C557.238,310.655 557.5,310.89 557.709,311.169L557.711,311.171L561.971,316.856L572.911,300.43C573.105,300.139 573.353,299.89 573.643,299.696C573.933,299.502 574.258,299.367 574.599,299.298C574.941,299.23 575.293,299.229 575.635,299.297C575.977,299.365 576.303,299.499 576.593,299.693C576.883,299.886 577.132,300.135 577.326,300.425C577.52,300.715 577.655,301.041 577.723,301.383C577.792,301.725 577.792,302.077 577.724,302.42C577.657,302.762 577.522,303.088 577.329,303.378L564.307,322.929C564.072,323.283 563.755,323.575 563.383,323.781C563.012,323.986 562.596,324.1 562.172,324.112C562.147,324.112 562.123,324.113 562.098,324.113Z" fill="#FFFFFF"/>
<path d="M553.303,297.8C554.072,297.348 554.732,296.732 555.237,295.997C555.742,295.262 556.08,294.425 556.227,293.545C556.374,292.665 556.326,291.763 556.087,290.903C555.848,290.044 555.424,289.247 554.844,288.569L574.007,255.051L562.764,255.663L545.875,288.143C544.802,289.194 544.152,290.602 544.046,292.1C543.941,293.599 544.389,295.084 545.304,296.274C546.22,297.464 547.54,298.277 549.014,298.558C550.489,298.84 552.015,298.57 553.303,297.8L553.303,297.8Z" fill="#FFB8B8"/>
<path d="M531.719,180.314C531.719,180.314 552.015,173.783 557.235,189.457C562.454,205.131 580.001,247.581 580.001,247.581L561.149,286.113L552.667,276.97L561.732,250.193L535.634,211.008L531.719,180.314Z" fill="#3F3D56"/>
<path d="M561.796,282.178C561.185,281.143 560.41,280.215 559.501,279.429L553.026,273.191L552.665,273.995C552.002,275.041 551.566,276.216 551.388,277.443C551.209,278.669 551.292,279.92 551.63,281.112C551.968,282.305 552.554,283.412 553.35,284.362C554.145,285.312 555.132,286.083 556.246,286.624C557.197,287.124 558.27,287.346 559.341,287.264C559.874,287.217 560.389,287.045 560.843,286.761C561.297,286.477 561.677,286.09 561.953,285.631C562.205,285.085 562.323,284.486 562.295,283.885C562.268,283.284 562.097,282.699 561.796,282.178L561.796,282.178Z" fill="#E6E6E6"/>
</svg>
