<svg width="32" height="16" viewBox="0 0 32 16" fill="none" xmlns="http://www.w3.org/2000/svg" xmlns:xlink="http://www.w3.org/1999/xlink">
<path d="M4,0C2.939,0 1.922,0.421 1.172,1.172C0.421,1.922 0,2.939 0,4L0,12C0,13.061 0.421,14.078 1.172,14.828C1.922,15.579 2.939,16 4,16L24,16C25.061,16 26.078,15.579 26.828,14.828C27.579,14.078 28,13.061 28,12L28,4C28,2.939 27.579,1.922 26.828,1.172C26.078,0.421 25.061,0 24,0L4,0ZM24,2C24.53,2 25.039,2.211 25.414,2.586C25.789,2.961 26,3.47 26,4L26,12C26,12.53 25.789,13.039 25.414,13.414C25.039,13.789 24.53,14 24,14L4,14C3.47,14 2.961,13.789 2.586,13.414C2.211,13.039 2,12.53 2,12L2,4C2,3.47 2.211,2.961 2.586,2.586C2.961,2.211 3.47,2 4,2L24,2ZM32,8C32,8.796 31.684,9.559 31.121,10.121C30.559,10.684 29.796,11 29,11L29,5C29.796,5 30.559,5.316 31.121,5.879C31.684,6.441 32,7.204 32,8Z" fill="#FFFFFF"/>
</svg>
